<svg width="32" height="32" viewBox="0 0 32 32" fill="none" xmlns="http://www.w3.org/2000/svg">
<g clip-path="url(#clip0_23_99)">
<path d="M18.1258 25.4817C16.8398 26.2133 15.2794 26.2571 14.0325 25.5465L3.19088 19.3669C2.47357 18.9582 2.04014 18.3057 1.88867 17.4779L1.89439 8.73392C1.99441 7.67367 2.65171 7.01161 3.53573 6.50863L14.1754 0.457681C15.389 -0.232958 16.8331 -0.123408 18.001 0.547226L28.9808 6.85062C29.5952 7.20308 30.0877 8.03661 30.0887 8.71868L30.102 17.1959C30.1039 18.319 29.4504 19.0402 28.5273 19.565L18.1258 25.4817ZM19.0965 20.0575C20.2082 19.5622 21.1551 18.9973 22.1392 18.3771C23.2651 17.6684 24.2063 16.6777 24.6931 15.4241C25.3094 13.8361 25.1837 12.0414 24.4873 10.5058C23.6214 8.5977 21.9191 7.78036 20.3197 6.78108C17.6533 5.11592 14.425 5.13116 11.7358 6.76012C10.6545 7.41456 9.55429 8.00041 8.66551 8.88729C7.50523 10.0457 6.94987 11.4908 6.91938 13.1035C6.86604 15.9299 8.41497 17.6427 10.7574 18.9306L12.4331 19.8518C14.4335 20.9511 16.9379 21.0168 19.0965 20.0566V20.0575Z" fill="url(#paint0_linear_23_99)"/>
<path d="M30.1131 22.7745C30.1321 23.9252 29.6444 24.7616 28.709 25.2979L17.9131 31.4775C16.7547 32.1405 15.321 32.1729 14.1474 31.5013L3.28772 25.2855C2.52183 24.8473 1.91787 24.1262 1.91692 23.207L1.91406 20.5244L3.28963 21.3494L13.3615 27.0574C15.0581 28.0186 17.151 27.929 18.8247 26.9745L30.075 20.5549L30.1121 22.7754L30.1131 22.7745Z" fill="url(#paint1_linear_23_99)"/>
<path d="M19.8008 12.7671C17.4774 11.3582 14.6595 11.3439 12.3447 12.6823L10.7853 13.5892C10.0185 14.036 9.51929 14.7162 9.16492 15.5611C8.23232 13.654 8.5724 10.9686 10.349 9.63306C11.3035 8.91575 12.3085 8.31942 13.4002 7.82692C15.3826 6.93242 17.5974 7.13247 19.4426 8.22035L20.9553 9.11198C23.252 10.4656 23.9055 13.1977 22.8586 15.6145C22.4919 14.7285 21.9746 14.0169 21.1725 13.5559L19.7998 12.7662L19.8008 12.7671Z" fill="url(#paint2_linear_23_99)"/>
</g>
<defs>
<linearGradient id="paint0_linear_23_99" x1="15.9953" y1="-0.0107422" x2="15.9953" y2="26.0557" gradientUnits="userSpaceOnUse">
<stop stop-color="#AD8DFD"/>
<stop offset="1" stop-color="#7E4ED7"/>
</linearGradient>
<linearGradient id="paint1_linear_23_99" x1="16.0138" y1="20.5244" x2="16.0138" y2="31.9901" gradientUnits="userSpaceOnUse">
<stop stop-color="#AD8DFD"/>
<stop offset="1" stop-color="#7E4ED7"/>
</linearGradient>
<linearGradient id="paint2_linear_23_99" x1="16.0019" y1="7.26367" x2="16.0019" y2="15.6145" gradientUnits="userSpaceOnUse">
<stop stop-color="#AD8DFD"/>
<stop offset="1" stop-color="#7E4ED7"/>
</linearGradient>
<clipPath id="clip0_23_99">
<rect width="32" height="32" fill="white"/>
</clipPath>
</defs>
</svg>
