<svg width="98" height="32" viewBox="0 0 98 32" fill="none" xmlns="http://www.w3.org/2000/svg">
<g clip-path="url(#clip0_25_173)">
<path d="M16.2377 25.4933C14.9516 26.2249 13.3912 26.2687 12.1442 25.558L1.30225 19.3783C0.584919 18.9696 0.151469 18.317 0 17.4892L0.00571559 8.74495C0.105742 7.68466 0.763062 7.02258 1.64711 6.51959L12.2871 0.468439C13.5008 -0.222223 14.945 -0.11267 16.1129 0.557987L27.093 6.86159C27.7074 7.21406 28.2 8.04762 28.2009 8.72971L28.2142 17.2072C28.2162 18.3304 27.5626 19.0515 26.6395 19.5764L16.2377 25.4933ZM17.2084 20.0689C18.3202 19.5736 19.2671 19.0087 20.2512 18.3885C21.3772 17.6797 22.3184 16.689 22.8052 15.4353C23.4215 13.8473 23.2958 12.0525 22.5994 10.5169C21.7335 8.60872 20.0311 7.79136 18.4316 6.79204C15.7652 5.12683 12.5367 5.14208 9.84741 6.77109C8.76617 7.42555 7.66587 8.01142 6.77706 8.89832C5.61675 10.0567 5.06136 11.5019 5.03088 13.1147C4.97753 15.9412 6.52652 17.654 8.86905 18.942L10.5447 19.8632C12.5453 20.9625 15.0498 21.0283 17.2084 20.068V20.0689Z" fill="#7E4ED7"/>
<path d="M28.2254 22.7853C28.2444 23.9361 27.7567 24.7725 26.8212 25.3088L16.0249 31.4886C14.8665 32.1516 13.4328 32.184 12.2592 31.5124L1.39909 25.2964C0.633173 24.8582 0.0292014 24.1371 0.0282488 23.2178L0.0253906 20.5352L1.401 21.3601L11.4732 27.0683C13.1699 28.0296 15.2628 27.94 16.9366 26.9855L28.1872 20.5656L28.2244 22.7862L28.2254 22.7853Z" fill="#7E4ED7"/>
<path d="M17.9125 12.7771C15.589 11.3681 12.7711 11.3538 10.4562 12.6923L8.8967 13.5992C8.12982 14.046 7.63064 14.7262 7.27626 15.5712C6.34363 13.664 6.68372 10.9785 8.46039 9.6429C9.41493 8.92557 10.42 8.32922 11.5117 7.8367C13.4941 6.94218 15.709 7.14223 17.5543 8.23014L19.0671 9.12181C21.3639 10.4755 22.0174 13.2077 20.9704 15.6245C20.6037 14.7386 20.0864 14.0269 19.2843 13.5659L17.9115 12.7761L17.9125 12.7771Z" fill="#7E4ED7"/>
<path d="M47.7798 22.9358L48.2966 26.043C46.4886 26.771 44.6086 27.0062 42.6742 26.5406C40.5894 26.0382 39.0438 24.3502 39.0246 22.1118L38.9542 13.8815L35.9062 13.8415L35.9094 10.7407L38.9654 10.6927L39.0022 5.8463L42.8246 5.2207L42.8374 10.7167L47.9158 10.7455L47.9334 13.8351L42.8278 13.8927L42.8406 21.491C42.8406 22.3166 43.3942 23.195 44.0998 23.4526C45.4054 23.9294 46.5158 23.5358 47.7782 22.9342L47.7798 22.9358Z" fill="#181926"/>
<path d="M68.0748 26.394L64.2572 26.3972L64.1676 24.1124C61.3052 28.0308 54.4925 27.45 51.6957 23.578C48.8989 19.706 49.6813 13.8452 54.0269 11.4245C57.1789 9.66927 61.9836 9.73167 64.1308 12.9701L64.2508 10.6869L68.0716 10.7109L68.0748 26.394ZM63.75 20.8724C64.4636 19.2068 64.414 17.218 63.4332 15.6772C62.4572 14.1428 60.6972 13.5029 58.9372 13.4981C56.3101 13.4901 54.2877 15.3188 54.0605 17.914C53.9021 19.7252 54.4781 21.53 55.9949 22.6228C58.3548 24.3236 62.518 23.7508 63.75 20.874V20.8724Z" fill="#181926"/>
<path d="M97.43 11.0981L91.5453 26.7604L87.6525 26.7588L85.9677 22.3444L83.5917 15.8901L79.4829 26.7796L75.6573 26.7524L69.835 11.0661L73.8525 11.0613L77.7597 22.3508L81.9373 11.0837L85.3325 11.0293L89.5453 22.354L93.4716 11.0981H97.43Z" fill="#181926"/>
</g>
<defs>
<clipPath id="clip0_25_173">
<rect width="97.4296" height="32.0012" fill="white"/>
</clipPath>
</defs>
</svg>
